<svg width="1920" height="114" fill="none" xmlns="http://www.w3.org/2000/svg"><path d="M0 29.58c144.667 35.627 221.593 26.657 279.765 15.892 13.395-2.307 45.926-12.047 99.889-24.606C418.309 11.639 450.84 5.23 495.235 1.899 548.815-1.946 575.988.361 625.358 6c79.605 8.714 114.432 20.248 192.506 30.757C860.346 42.396 908.185 47.01 961 48.291V108H0V29.58ZM1920 29.388c-144.37 35.396-221.13 26.483-279.18 15.788-13.37-2.291-45.83-11.968-99.68-24.446-38.58-9.167-71.04-15.533-115.34-18.843-53.47-3.82-80.59-1.528-129.86 4.074-79.44 8.658-114.19 20.117-192.1 30.557-42.4 5.603-90.14 10.186-142.84 11.46V114h959V29.388Z" fill="#fff"/></svg>